<?xml version="1.0" encoding="utf-8"?>
<!-- Generator: Adobe Illustrator 18.0.0, SVG Export Plug-In . SVG Version: 6.00 Build 0)  -->
<!DOCTYPE svg PUBLIC "-//W3C//DTD SVG 1.1//EN" "http://www.w3.org/Graphics/SVG/1.1/DTD/svg11.dtd">
<svg version="1.1" id="图层_1" xmlns="http://www.w3.org/2000/svg" xmlns:xlink="http://www.w3.org/1999/xlink" x="0px" y="0px"
	 viewBox="0 0 175 118" enable-background="new 0 0 175 118" xml:space="preserve">
<rect fill="#F0F5F9" width="175" height="118"/>
<g>
	<g>
		<path fill="#D1E1EE" d="M74.6,75.2l-1.2-1c0,0-0.2,0.2-0.4,0.5l-0.6,0.7c-0.1,0.2,0.2,0.7,0.9,1.4c0.6,0.8,1.1,1.2,1.2,1.3
			c0.2,0.1,0.7,0.3,1.6,0.4c0.9,0.2,1.5,0.3,1.6,0.3l1.2,0l2.1,0.2l1.2-0.1l1.8,0.2c0.1,0,1.1,0,3.1,0l7.2-0.1l1.5-0.2l1.1-0.1
			l1.4-0.3c1.1-0.1,1.7-0.2,1.9-0.4c0.2-0.1,0.4-0.4,0.4-0.8c0-0.3-0.1-0.5-0.3-0.7c-0.2-0.2-0.6-0.5-1.2-1
			c-0.6-0.4-1.1-0.7-1.3-0.8c-0.2-0.1-0.6-0.2-1.1-0.2c-0.4,0-1.3,0.1-2.6,0.3c-1.3,0.2-2.2,0.3-2.7,0.2c-0.2,0-0.6-0.1-1.3-0.2
			c-0.7-0.1-1.1-0.2-1.3-0.1c-0.2,0-0.5,0.1-1,0.3l0.4-10.2l2.2-0.6l2.5-0.1c0.4-0.2,0.8-0.3,1.1-0.3c0.2,0,0.3,0,0.4,0l0.5,0.1
			l0.7-0.5H98l0.5-0.5l0.3,0c0.2,0,0.5-0.3,0.8-0.7l-3.6-1.8l0.1-0.4c-2.5,0.3-5.1,0.4-7.7,0.4l0.3-1.3l-0.1-1.7
			c0-0.5,0.1-1.1,0.4-2.1l1.1,0.1c0,0,0.2-0.1,0.5-0.3l0.7,0l3,0.1l0.9-0.1H96c0.2,0,0.3-0.1,0.5-0.4l0.5-0.7c0,0,0-0.1-0.1-0.3
			c-0.1-0.2-0.5-0.5-1.2-1.2c-0.7-0.6-1.1-0.9-1.3-1c-0.2-0.1-0.4-0.1-0.8-0.1l-1.5,0.1h-2.8L87,51.9h-1.8l-8.8,0.2
			c-0.2,0-0.5,0.2-1,0.4c-0.5,0.3-0.7,0.6-0.6,1.2c0.1,0.5,0.4,0.8,1.1,0.9l0.5,0c0.2,0,0.7,0.1,1.5,0.3l2.6,0.6
			c0.4,0.1,0.6,0.2,0.8,0.2l1-0.2c0.2,0,0.4-0.1,0.6-0.1c0.4,0,0.7,0.1,0.9,0.3c0.2,0.2,0.3,0.6,0.3,1.2c0,0.7,0.1,1.3,0.1,1.8
			c0,0.6,0,1.3,0,2.2l-2.5,0.1L77.1,61c-1,0.1-1.7,0.2-2.1,0.6c-0.4,0.3-0.6,0.6-0.7,0.8c0,0.4,0.3,0.7,1,1l1.7,0.4
			c1,0.3,1.6,0.5,1.9,0.5l2.3,0.2c0.7,0.1,1.2,0.1,1.7,0.1c0.5-0.1,0.7-0.1,0.8-0.1c0.2,0.1,0.3,0.2,0.5,0.4l0.3,4.7l0.6,5.4
			c-0.2,0.2-0.5,0.4-0.7,0.4l-0.8,0c-0.1,0-0.3,0-0.7,0.1c-0.3,0.1-0.7,0.1-1,0.1L77,75.4c-0.1,0-0.2,0-0.2,0l-1.4,0.1
			C75.1,75.5,74.8,75.4,74.6,75.2z"/>
		<path fill="#D1E1EE" d="M82.5,68.3l-2.2-1.9c-0.4-0.4-1.1-0.6-1.9-0.6c-1.1,0-1.9,0.4-2.3,1c-0.4,0.7-0.6,1.2-0.6,1.6
			c0,0.7,0.2,1.4,0.8,1.9c0.5,0.6,1.4,1.3,2.6,2.4c0.5,0.5,0.9,0.7,1.2,0.7c0.2,0,0.6-0.2,0.9-0.5c-0.9-0.7-1.4-1.3-1.3-1.7
			c0-0.4,0.1-0.8,0.3-1.2C80.2,69.5,81,69,82.5,68.3z"/>
		<path fill="#D1E1EE" d="M94.8,66.1c-0.3,0-0.7,0.3-1.4,0.7c-0.6,0.4-1.1,0.9-1.5,1.6c-0.4,0.7-0.6,1.4-0.6,2.4c0,1,0.1,1.7,0.5,2
			c0.4,0.3,0.7,0.4,0.9,0.4c0.2,0,0.4-0.1,0.5-0.2l0.1-1.1l0.8-0.6c0.1-0.1,0.3-0.4,0.4-0.8l0.5,0l2.3-1.2c0.2-0.1,0.5-0.2,1-0.3
			l-1-1C96.1,66.6,95.3,66.1,94.8,66.1z"/>
		<path fill="#D1E1EE" d="M109.3,53.2c0.2,0.1,0.5,0.3,0.9,0.7c0.5,0.4,0.9,0.7,1.3,0.8c0.4,0.2,0.6,0.2,0.7,0.2l0.5,0.5h0.7
			c0.1,0,0.2,0.2,0.3,0.3l0.4-0.1l-0.2-1.3c0-0.2-0.3-0.7-0.7-1.2c-0.4-0.6-1-1.1-1.8-1.6l-7.1-4.6l-0.6-0.5l-7.3-3.2L92.1,42
			c-0.3-0.2-0.7-0.7-1.3-1.5c-0.6-0.8-1.1-1.3-1.5-1.4c-0.4-0.2-0.8-0.3-1.2-0.3c-0.4,0-1.9,0.4-4.5,1.1c-2.6,0.8-4.4,1.3-5.4,1.7
			c-1,0.4-1.9,0.9-2.9,1.6c-1,0.7-2.5,1.8-4.7,3.5c-2.2,1.7-3.4,2.7-3.8,3.1l-1.3,1.3L64,52.5l-1.9,2.2c-0.9,0.9-1.3,1.5-1.3,1.8
			c0,0.3,0.2,0.5,0.4,0.8c0.2,0.3,0.5,0.4,0.8,0.3c0.3,0,0.7-0.2,0.9-0.4l0.6-0.7c0.2-0.2,0.4-0.3,0.7-0.6l7.8-4.9l3.1-2.4l1.6-0.8
			c0.7-0.4,1.1-0.6,1.2-0.6l0.8-0.2l4.4-1.9l1.3,0.1l2.1-0.3c0.3,0,0.5,0,0.7-0.1c0.4,0,0.8,0.1,1.3,0.2l1.2,0.5l2.7,0.6l4.3,1.6
			l2.3,0.8c2.5,1.1,3.9,1.7,4.3,1.7c0.4,0,0.6,0.1,0.7,0.1l2.3,1.9l1.2,0.4l1.1,0.6L109.3,53.2z"/>
	</g>
</g>
<circle fill="none" stroke="#E4EDF4" stroke-width="3" stroke-miterlimit="10" cx="87.5" cy="59" r="39"/>
</svg>
