<?xml version="1.0" encoding="utf-8"?>
<!-- Generator: Adobe Illustrator 18.0.0, SVG Export Plug-In . SVG Version: 6.00 Build 0)  -->
<!DOCTYPE svg PUBLIC "-//W3C//DTD SVG 1.1//EN" "http://www.w3.org/Graphics/SVG/1.1/DTD/svg11.dtd">
<svg version="1.1" id="图层_1" xmlns="http://www.w3.org/2000/svg" xmlns:xlink="http://www.w3.org/1999/xlink" x="0px" y="0px"
	 viewBox="0 0 594 200" enable-background="new 0 0 594 200" xml:space="preserve">
<g>
	<g transform="scale(0.1953125, 0.1953125)">
		<path fill="#FFBF00" d="M477.2,73.7c12.3-26.6,34.8-26.6,49.2,0L636.9,297c12.3,26.6,49.2,53.2,77.8,57.3l245.8,34.8
			c30.7,4.1,36.9,24.6,14.3,45.1L796.7,608.3c-22.5,20.5-34.8,61.4-30.7,92.2l41,243.7c4.1,28.7-12.3,43-38.9,28.7L548.9,858.1
			c-26.6-14.3-69.6-14.3-96.3,0L233.5,972.8c-26.6,14.3-45.1,2-38.9-28.7l41-243.7c4.1-28.7-8.2-71.7-30.7-92.2L26.6,434.2
			c-22.5-20.5-14.3-41,14.3-45.1l245.8-34.8c30.7-4.1,65.5-30.7,77.8-57.3L477.2,73.7z"/>
	</g>
</g>
<g>
	<g transform="scale(0.1953125, 0.1953125)">
		<path fill="#FFBF00" d="M1503.6,73.7c12.3-26.6,34.8-26.6,49.2,0L1663.4,297c12.3,26.6,49.2,53.2,77.8,57.3l245.8,34.8
			c30.7,4.1,36.9,24.6,14.3,45.1l-178.2,174.1c-22.5,20.5-34.8,61.4-30.7,92.2l41,243.7c4.1,28.7-12.3,43-38.9,28.7l-219.1-114.7
			c-26.6-14.3-69.6-14.3-96.3,0l-219.1,114.7c-26.6,14.3-45.1,2-38.9-28.7l41-243.7c4.1-28.7-8.2-71.7-30.7-92.2l-178.2-174.1
			c-22.5-20.5-14.3-41,14.3-45.1l245.8-34.8c30.7-4.1,65.5-30.7,77.8-57.3L1503.6,73.7z"/>
	</g>
</g>
<g>
	<g transform="scale(0.1953125, 0.1953125)">
		<path fill="#FFBF00" d="M2530.1,73.7c12.3-26.6,34.8-26.6,49.2,0L2689.8,297c12.3,26.6,49.2,53.2,77.8,57.3l245.8,34.8
			c30.7,4.1,36.9,24.6,14.3,45.1l-178.2,174.1c-22.5,20.5-34.8,61.4-30.7,92.2l41,243.7c4.1,28.7-12.3,43-38.9,28.7l-219.1-114.7
			c-26.6-14.3-69.6-14.3-96.3,0l-219.1,114.7c-26.6,14.3-45.1,2-38.9-28.7l41-243.7c4.1-28.7-8.2-71.7-30.7-92.2l-178.2-174.1
			c-22.5-20.5-14.3-41,14.3-45.1l245.8-34.8c30.7-4.1,65.5-30.7,77.8-57.3L2530.1,73.7z"/>
	</g>
</g>
</svg>
